<?xml version="1.0" standalone="no"?>
<!DOCTYPE svg PUBLIC "-//W3C//DTD SVG 20010904//EN"
 "http://www.w3.org/TR/2001/REC-SVG-20010904/DTD/svg10.dtd">
<svg version="1.0" xmlns="http://www.w3.org/2000/svg"
 width="150.000000pt" height="84.000000pt" viewBox="0 0 300.000000 168.000000"
 preserveAspectRatio="xMidYMid meet">

<g transform="translate(0.000000,168.000000) scale(0.100000,-0.100000)"
fill="#000000" stroke="none">
<path d="M60 1010 l0 -620 190 0 190 0 0 620 0 620 -190 0 -190 0 0 -620z"/>
<path d="M720 1010 l0 -620 190 0 190 0 0 255 0 255 240 0 240 0 0 125 0 125
-240 0 -240 0 0 110 0 110 280 0 280 0 0 130 0 130 -470 0 -470 0 0 -620z"/>
<path d="M2017 1553 c-16 -43 -32 -87 -37 -98 -17 -39 -139 -374 -146 -401 -7
-27 -6 -27 32 -21 21 4 84 7 139 7 l100 0 60 173 c60 172 60 172 92 175 39 4
38 5 104 -185 28 -81 54 -151 58 -155 3 -3 66 -8 139 -10 117 -3 133 -2 128
12 -2 8 -51 141 -109 295 l-103 280 -215 3 -214 2 -28 -77z"/>
<path d="M2252 1330 c-5 -14 -29 -79 -52 -145 -23 -66 -48 -135 -56 -152 l-13
-33 -181 0 c-108 0 -180 -4 -178 -9 2 -5 66 -58 143 -116 77 -59 141 -108 142
-109 1 0 -22 -81 -51 -179 -30 -97 -51 -177 -49 -177 3 0 70 45 149 100 79 55
149 100 155 100 6 0 74 -44 152 -98 159 -109 163 -111 154 -87 -12 30 -97 324
-97 334 0 6 66 61 148 123 l147 113 -189 5 -189 5 -62 175 c-56 154 -64 172
-73 150z"/>
<path d="M1770 894 c-43 -118 -117 -314 -146 -387 -19 -48 -34 -94 -34 -102 0
-13 23 -15 163 -13 l162 3 3 25 c3 21 76 283 89 317 2 6 -42 46 -99 89 -57 42
-109 81 -115 87 -9 6 -16 1 -23 -19z"/>
<path d="M2618 829 l-105 -81 34 -112 c18 -61 41 -141 51 -178 l17 -68 157 0
157 0 -34 94 c-115 318 -157 426 -165 426 -3 0 -54 -37 -112 -81z"/>
<path d="M50 155 l0 -105 30 0 30 0 0 105 0 105 -30 0 -30 0 0 -105z"/>
<path d="M195 213 c-9 -27 -25 -74 -35 -106 l-18 -57 30 0 c21 0 31 6 35 20 8
29 79 29 88 0 4 -14 15 -20 36 -20 35 0 36 -8 -13 128 l-30 82 -38 0 c-36 0
-39 -2 -55 -47z m71 -70 c-2 -3 -11 -3 -18 -1 -12 2 -13 10 -5 38 l10 35 9
-34 c5 -18 7 -35 4 -38z"/>
<path d="M390 155 l0 -105 30 0 c28 0 30 2 30 40 0 39 1 40 35 40 31 0 35 3
35 25 0 22 -4 25 -35 25 -28 0 -35 4 -35 19 0 15 7 18 43 18 36 -1 42 2 45 21
3 21 0 22 -72 22 l-76 0 0 -105z"/>
<path d="M1160 155 c0 -127 6 -131 85 -48 l54 58 1 -57 c0 -55 1 -58 25 -58
l25 0 0 105 c0 97 -1 105 -19 105 -11 0 -41 -24 -68 -55 -26 -30 -51 -55 -55
-55 -5 0 -8 25 -8 55 0 48 -2 55 -20 55 -19 0 -20 -7 -20 -105z"/>
<path d="M1470 251 c0 -5 -11 -12 -25 -15 -64 -16 -86 -86 -40 -131 13 -14 33
-25 45 -25 11 0 20 -7 20 -15 0 -19 56 -21 63 -1 3 7 19 16 36 19 30 6 61 47
61 82 0 23 -55 75 -79 75 -12 0 -21 5 -21 10 0 6 -13 10 -30 10 -16 0 -30 -4
-30 -9z m93 -82 c4 -16 -15 -49 -29 -49 -2 0 -4 18 -4 40 0 30 3 38 14 34 8
-3 16 -14 19 -25z m-93 -15 c0 -31 -2 -35 -15 -24 -16 13 -20 42 -8 53 15 15
23 5 23 -29z"/>
<path d="M1695 213 c-9 -27 -25 -74 -35 -106 l-18 -57 30 0 c21 0 31 6 35 20
8 29 79 29 88 0 4 -14 15 -20 36 -20 35 0 36 -8 -13 128 l-30 82 -38 0 c-36 0
-39 -2 -55 -47z m71 -70 c-2 -3 -11 -3 -18 -1 -12 2 -13 10 -5 38 l10 35 9
-34 c5 -18 7 -35 4 -38z"/>
<path d="M2460 168 c0 -104 7 -121 41 -116 23 3 24 6 27 106 l3 102 -36 0 -35
0 0 -92z"/>
<path d="M2572 158 l3 -103 30 0 c28 0 30 3 30 35 0 33 2 35 38 38 32 3 37 7
37 28 0 21 -4 24 -41 24 -33 0 -40 3 -37 18 3 13 13 17 46 17 37 0 42 3 42 23
0 21 -4 22 -75 22 l-76 0 3 -102z"/>
<path d="M2756 159 c-20 -55 -36 -102 -36 -105 0 -2 14 -4 31 -4 22 0 32 5 36
20 8 29 78 29 86 0 4 -15 14 -20 36 -20 17 0 31 1 31 3 0 1 -16 47 -35 101
-19 55 -35 101 -35 103 0 2 -17 3 -39 3 l-39 0 -36 -101z m88 15 c10 -26 7
-34 -14 -34 -11 0 -20 4 -20 9 0 17 12 41 20 41 4 0 11 -7 14 -16z"/>
</g>
</svg>
